<?xml version="1.0" encoding="UTF-8" standalone="no"?><!DOCTYPE svg PUBLIC "-//W3C//DTD SVG 1.1//EN" "http://www.w3.org/Graphics/SVG/1.1/DTD/svg11.dtd"><svg width="100%" height="100%" viewBox="0 0 25 25" version="1.1" xmlns="http://www.w3.org/2000/svg" xmlns:xlink="http://www.w3.org/1999/xlink" xml:space="preserve" xmlns:serif="http://www.serif.com/" style="fill-rule:evenodd;clip-rule:evenodd;stroke-linejoin:round;stroke-miterlimit:2;"><rect id="画板1" x="0" y="0" width="25" height="25" style="fill:none;"/><path id="tiny" d="M10.239,9.756l-6.107,-7.411c-0.362,-0.519 -0.481,-0.797 -0.315,-1.192c0.173,-0.404 0.576,-0.663 1.015,-0.653c0.325,0.062 0.617,0.237 0.825,0.494l6.941,6.659l5.072,-4.523c0.189,-0.18 0.444,-0.274 0.704,-0.259c0.462,0.024 0.871,0.312 1.049,0.74c0.165,0.396 0,0.64 -0.349,1.104l-4.288,5.037l1.357,1.302c0.397,0.36 0.624,0.872 0.624,1.409c0,0.539 -0.229,1.054 -0.63,1.414l-1.41,1.311l6.158,7.422c0.323,0.319 0.448,0.79 0.324,1.227c-0.15,0.391 -0.524,0.653 -0.942,0.66c-0.274,0.022 -0.544,-0.08 -0.734,-0.279l-7.129,-6.87l-4.69,4.36c-0.182,0.223 -0.452,0.355 -0.74,0.361c-0.449,0.004 -0.857,-0.267 -1.028,-0.682c-0.131,-0.454 -0.009,-0.946 0.319,-1.285l3.955,-4.858l-1.378,-1.328c-0.397,-0.384 -0.621,-0.913 -0.621,-1.466c0,-0.552 0.224,-1.082 0.621,-1.466l1.373,-1.24l2.24,2.706l0.02,0.024l0.002,-0.002l-0.49,-0.595l-1.752,-2.117l0.004,-0.004Z" style="fill:#bdb9b4;"/><path d="M20.294,24.997l-0.014,0.001c-0.41,0.025 -0.812,-0.13 -1.099,-0.424l-6.782,-6.536l-4.318,4.014c-0.274,0.32 -0.672,0.51 -1.095,0.518l-0.006,0c-0.653,0.006 -1.247,-0.388 -1.495,-0.992l-0.018,-0.051c-0.179,-0.618 -0.017,-1.287 0.424,-1.755l3.653,-4.486l-1.048,-1.01c-0.494,-0.478 -0.774,-1.137 -0.774,-1.825c0,-0.688 0.279,-1.347 0.774,-1.825l0.013,-0.012l1.026,-0.927l-5.788,-7.023l-0.024,-0.032c-0.502,-0.72 -0.596,-1.122 -0.367,-1.671l0.002,-0.004c0.253,-0.591 0.844,-0.97 1.487,-0.955c0.028,0.001 0.055,0.004 0.082,0.009c0.43,0.082 0.818,0.311 1.098,0.645l6.587,6.318l4.717,-4.206c0.288,-0.274 0.677,-0.417 1.074,-0.394c0.654,0.034 1.232,0.442 1.484,1.046c0.235,0.563 0.086,0.936 -0.411,1.597l-0.019,0.024l-3.983,4.678l1.014,0.972c0.497,0.455 0.781,1.099 0.781,1.773c0,0.679 -0.287,1.326 -0.79,1.781l-1.063,0.989l5.834,7.033c0.444,0.446 0.614,1.1 0.442,1.707l-0.014,0.043c-0.22,0.575 -0.768,0.962 -1.382,0.98Zm-10.055,-15.24l-0.004,0.004l1.752,2.117l0.49,0.595l-0.002,0.002l-0.02,-0.024l-2.24,-2.706l-1.373,1.24c-0.397,0.384 -0.621,0.913 -0.621,1.466c0,0.552 0.224,1.082 0.621,1.466l1.378,1.328l-3.955,4.858c-0.329,0.34 -0.451,0.831 -0.319,1.285c0.171,0.415 0.579,0.686 1.028,0.682c0.287,-0.006 0.558,-0.138 0.74,-0.361l4.69,-4.36l7.129,6.87c0.19,0.198 0.46,0.301 0.734,0.279c0.418,-0.007 0.793,-0.269 0.942,-0.66c0.124,-0.437 -0.001,-0.908 -0.324,-1.227l-6.158,-7.422l1.41,-1.311c0.401,-0.361 0.63,-0.875 0.63,-1.414c0,-0.536 -0.227,-1.048 -0.624,-1.409l-1.357,-1.302l4.288,-5.037c0.349,-0.465 0.514,-0.709 0.349,-1.104c-0.178,-0.427 -0.587,-0.716 -1.049,-0.74c-0.26,-0.015 -0.515,0.079 -0.704,0.259l-5.072,4.523l-6.941,-6.659c-0.208,-0.257 -0.5,-0.432 -0.825,-0.494c-0.439,-0.01 -0.842,0.249 -1.015,0.653c-0.165,0.396 -0.046,0.673 0.315,1.192l6.107,7.411Z" style="fill:#fff;"/><g id="tiny1" serif:id="tiny"><path d="M10.235,9.76l2.241,2.707l6.599,-7.752c0.349,-0.465 0.514,-0.709 0.349,-1.104c-0.178,-0.427 -0.587,-0.716 -1.049,-0.74c-0.26,-0.015 -0.515,0.079 -0.704,0.259l-7.436,6.63Z" style="fill:#bdb9b4;fill-rule:nonzero;"/><path d="M16.144,11.055l-10.487,-10.06c-0.208,-0.257 -0.5,-0.432 -0.825,-0.494c-0.439,-0.01 -0.842,0.249 -1.015,0.653c-0.165,0.396 -0.046,0.673 0.315,1.192l8.345,10.127l-6.212,7.629c-0.329,0.34 -0.451,0.831 -0.319,1.285c0.171,0.415 0.579,0.686 1.028,0.682c0.287,-0.006 0.558,-0.138 0.74,-0.361l8.423,-7.831c0.401,-0.361 0.63,-0.875 0.63,-1.414c0,-0.536 -0.227,-1.048 -0.624,-1.409Z" style="fill:#b31b1b;fill-rule:nonzero;"/><path d="M20.885,22.61l-8.429,-10.16l-2.24,-2.706l-1.373,1.24c-0.397,0.384 -0.621,0.913 -0.621,1.466c0,0.552 0.224,1.082 0.621,1.466l10.691,10.302c0.19,0.198 0.46,0.301 0.734,0.279c0.418,-0.007 0.793,-0.269 0.942,-0.66c0.124,-0.437 -0.001,-0.908 -0.324,-1.227Z" style="fill:#bdb9b4;fill-rule:nonzero;"/></g></svg>